<svg id="illustration" xmlns="http://www.w3.org/2000/svg" viewBox="0 0 350 350"><defs><style>.cls-1{fill:none;}.cls-2{fill:#ececeb;}.cls-3{clip-path:url(#clip-path);}.cls-4{fill:#35785d;}.cls-5{fill:#5a753d;}.cls-6{fill:#99c26d;}.cls-7{fill:#dfbda5;}.cls-8{fill:#c3987b;}.cls-9{fill:#8b6651;}.cls-10{fill:#54b08b;}.cls-11{fill:#e8cab6;}.cls-12{fill:#fff;}.cls-13{fill:#bfdb8e;}.cls-14{fill:#474747;}.cls-15{fill:#72c9a6;}.cls-16{fill:#3f8f6f;}.cls-17{fill:#446125;}.cls-18{fill:#709d53;}.cls-19{fill:#2b2b2b;}</style><clipPath id="clip-path"><circle class="cls-1" cx="175" cy="175" r="175"/></clipPath></defs><circle class="cls-2" cx="175" cy="175" r="175"/><g class="cls-3"><polygon class="cls-4" points="211.62 51.59 234.6 24.77 193.59 20.17 211.62 51.59"/><path class="cls-5" d="M56.53,328.87,45,320a166.26,166.26,0,0,0,18.08,12.29l5.65-20.13-28.84,4Q48.22,322.45,56.53,328.87Z"/><path class="cls-6" d="M68.21,335.05A281.51,281.51,0,0,0,121,348.82c2.75.29,5.49.53,8.24.75l-1.09-8.12L68.72,312.12l-8.88,18.21C62.56,332,65.34,333.6,68.21,335.05Z"/><polygon class="cls-7" points="89.85 297.12 129.78 322.77 158.07 313.16 172.44 305.71 228.71 313.86 266.67 161.87 264.36 121.89 220.66 125.65 137.42 120.5 111.62 150.54 109.62 193.28 79.51 198.97 89.85 297.12"/><polygon class="cls-8" points="130.74 298.76 152.58 152.58 151.47 124.28 119.03 143.82 100.04 179.98 67.34 188.82 74.95 225.51 80.75 232.14 79.47 247.26 89.63 296.21 102.46 321.43 128.18 341.45 126.16 307.46 130.74 298.76"/><polygon class="cls-9" points="75.05 225.49 94.95 221.44 79.47 247.26 75.05 225.49"/><polygon class="cls-10" points="234.6 24.77 190.64 56.61 182.66 89.35 222.68 143.19 244.97 85.27 234.6 24.77"/><polygon class="cls-9" points="76.96 196.05 89.83 193 92.99 213.9 76.96 196.05"/><polygon class="cls-11" points="209.79 240.39 193.28 237.47 201.85 184.91 218.36 187.83 209.79 240.39"/><polygon class="cls-9" points="209.79 240.39 199.25 246.22 193.28 237.47 209.79 240.39"/><polygon class="cls-12" points="175.51 274.14 163.61 248.59 228.11 260.93 207.68 278.81 175.51 274.14"/><path class="cls-8" d="M167.23,251.41l56.29,10.76L207,276.6l-30.11-4.36-9.69-20.83M160,245.78l3.44,7.39,9.7,20.83,1,2.05,2.23.32,30.11,4.36,1.91.28,1.44-1.27,16.49-14.43,6.44-5.63-8.41-1.61L168,247.31l-8-1.53Z"/><path class="cls-13" d="M175.64,351c9.53,0,19.07-.13,28.59-.49l-15.76-14.14-60.29,5.06L127,349.39C143.16,350.8,159.38,351.06,175.64,351Z"/><polygon class="cls-4" points="161.29 165.8 165.41 169.16 190.75 161.71 200.12 168.82 202.6 166.46 197.2 150.87 161.29 165.8"/><polygon class="cls-4" points="226.69 174.25 238.56 175.69 248.65 166.59 263.64 164.2 247.99 160.03 226.69 174.25"/><path class="cls-14" d="M121,348.82c4.75.5,9.51.89,14.27,1.2l-7.12-8.57-10.64,6.76C118.71,348.41,119.87,348.63,121,348.82Z"/><polygon class="cls-15" points="275.13 116.01 266.33 71.25 234.6 24.77 222.68 143.19 275.13 116.01"/><polygon class="cls-16" points="57.52 151.38 67.34 188.82 97.84 187.73 103.03 213.99 126.76 210.06 123.5 155.2 97.68 140.37 57.52 151.38"/><polygon class="cls-17" points="150.54 166.25 64.69 177.63 67.34 188.82 147.6 185.94 150.54 166.25"/><polygon class="cls-16" points="130.27 65.89 131.83 106.87 151.18 125.71 151.18 125.71 151.69 125.18 222.68 143.19 190.64 56.61 130.27 65.89"/><polygon class="cls-4" points="57.52 151.38 123.5 155.2 151.18 125.71 130.27 65.89 57.52 151.38"/><polygon class="cls-8" points="153.9 200.22 163.65 183.9 192.8 188.16 197.03 182.71 156.7 172.82 153.9 200.22"/><polygon class="cls-8" points="243.52 192.66 230.56 195.67 223.11 213.29 223.82 184.61 243.52 192.66"/><polygon class="cls-9" points="222.68 143.19 265.01 133.18 264.34 121.79 222.68 143.19"/><polygon class="cls-8" points="226.69 174.25 220.47 179.55 252.06 185.87 263.64 164.2 248.65 166.59 238.56 175.69 226.69 174.25"/><polygon class="cls-8" points="200.12 168.82 201.23 176.38 165.18 169.22 190.75 161.71 200.12 168.82"/><polygon class="cls-8" points="152.1 207.42 195.65 222.96 196.9 215.28 152.1 207.42"/><polygon class="cls-8" points="212.07 226.37 250.85 223.28 213.1 220.09 212.07 226.37"/><polygon class="cls-9" points="172.44 305.71 120.52 297.06 128.18 341.45 150.6 337.31 170.19 314.35 172.44 305.71"/><path class="cls-18" d="M223.37,180.06v0l-.94-.16-2.69-.54v.1l-16.42-2.71-52.77-10.47-6.13,41,52.49,8.06L202,185l16.43,2.71-5.28,32.41,52.4,8.09L272.57,190Zm-33.81,25.57-35.66-5.41,3.6-24,36.16,7.33Zm69.2,13.07-35.65-5.41,3.59-24,36.16,7.32Z"/><path class="cls-19" d="M251.15,201.73a6.09,6.09,0,1,1-7.33-4.52A6.1,6.1,0,0,1,251.15,201.73Z"/><path class="cls-19" d="M189.88,190.47a6.09,6.09,0,1,1-7.33-4.53A6.08,6.08,0,0,1,189.88,190.47Z"/><path class="cls-17" d="M120.15,348.66l8-7.21L89.63,296.21,68.72,312.12,86.39,341A292.42,292.42,0,0,0,120.15,348.66Z"/><path class="cls-17" d="M168.42,351l20.05-14.63-18.28-22-42,27.1,5,8.42C144.9,350.69,156.65,351,168.42,351Z"/></g></svg>